<svg width="875" height="157" viewBox="0 0 875 157" fill="none" xmlns="http://www.w3.org/2000/svg">
<path d="M234.251 122.755V112.191L263.861 18.5992H292.727L322.337 112.191V122.755H300.167L278.889 40.6207H277.699L256.421 122.755H234.251ZM258.058 102.817V82.7294H298.976V102.817H258.058Z" fill="#00A3FF"/>
<path d="M351.504 122.755C347.933 122.755 344.659 121.912 341.684 120.225C338.708 118.44 336.377 116.109 334.69 113.232C333.004 110.256 332.161 106.983 332.161 103.412V66.2133C332.161 62.6422 333.004 59.3687 334.69 56.3929C336.377 53.417 338.708 51.0859 341.684 49.3996C344.659 47.7132 347.933 46.8701 351.504 46.8701H389.298V60.1127L383.346 66.362H360.134C358.051 66.362 356.464 66.9076 355.373 67.9988C354.281 69.0899 353.736 70.6771 353.736 72.7602V96.716C353.736 98.8983 354.281 100.535 355.373 101.626C356.464 102.618 358.051 103.114 360.134 103.114H389.298V122.755H351.504Z" fill="#00A3FF"/>
<path d="M427.203 122.755C423.632 122.755 420.358 121.912 417.382 120.225C414.407 118.44 412.075 116.109 410.389 113.232C408.703 110.256 407.86 106.983 407.86 103.412V65.3205H397.444V46.8701H408.752L416.341 26.0389H429.435V46.8701H447.29V59.0712L441.189 65.3205H429.435V96.716C429.435 98.8983 429.98 100.535 431.071 101.626C432.163 102.618 433.75 103.114 435.833 103.114H449.224V122.755H427.203Z" fill="#00A3FF"/>
<path d="M462.684 122.755V46.8701H484.408V122.755H462.684ZM462.684 34.0738V13.0939H484.259V34.0738H462.684Z" fill="#00A3FF"/>
<path d="M519.312 122.755L496.1 57.2856V46.8701H517.526L530.918 99.2455H531.959L545.351 46.8701H566.777V57.2856L543.565 122.755H519.312Z" fill="#00A3FF"/>
<path d="M592.664 124.243C589.192 124.243 585.968 123.4 582.992 121.713C580.016 119.928 577.636 117.597 575.85 114.72C574.164 111.744 573.321 108.471 573.321 104.9V95.972C573.321 92.401 574.164 89.1275 575.85 86.1516C577.636 83.1757 580.016 80.8446 582.992 79.1583C585.968 77.472 589.192 76.6288 592.664 76.6288H616.917V71.2722C616.917 69.0899 616.372 67.5028 615.28 66.5108C614.189 65.4197 612.602 64.8741 610.519 64.8741H579.868V46.8701H619.298C622.77 46.8701 625.994 47.7132 628.97 49.3996C631.945 51.0859 634.276 53.417 635.963 56.3929C637.748 59.3687 638.641 62.6422 638.641 66.2133V122.755H623.464L620.191 114.571H619.447C618.256 117.15 616.272 119.432 613.495 121.416C610.717 123.3 607.246 124.243 603.079 124.243H592.664ZM608.138 106.239C610.023 106.239 611.61 105.892 612.9 105.197C614.189 104.503 615.181 103.511 615.876 102.221C616.57 100.833 616.917 99.2455 616.917 97.46V92.1034H600.847C598.963 92.1034 597.524 92.5498 596.532 93.4425C595.54 94.3353 595.045 95.6744 595.045 97.46V100.287C595.045 102.172 595.54 103.66 596.532 104.751C597.624 105.743 599.062 106.239 600.847 106.239H608.138Z" fill="#00A3FF"/>
<path d="M651.464 122.755V105.197L684.496 66.9572V65.9157H657.862L651.91 59.6663V46.8701H712.618V64.4277L679.586 102.668V103.709H712.618V122.755H651.464Z" fill="#00A3FF"/>
<path d="M743.831 124.243C740.26 124.243 736.987 123.4 734.011 121.713C731.035 119.928 728.704 117.597 727.018 114.72C725.331 111.744 724.488 108.471 724.488 104.9V64.7253C724.488 61.1543 725.331 57.8808 727.018 54.9049C728.704 51.9291 731.035 49.5979 734.011 47.9116C736.987 46.2253 740.26 45.3821 743.831 45.3821H773.739C777.31 45.3821 780.534 46.2253 783.41 47.9116C786.386 49.5979 788.717 51.9291 790.404 54.9049C792.189 57.8808 793.082 61.1543 793.082 64.7253V104.9C793.082 108.471 792.189 111.744 790.404 114.72C788.717 117.597 786.386 119.928 783.41 121.713C780.534 123.4 777.31 124.243 773.739 124.243H743.831ZM765.109 104.9C767.192 104.9 768.779 104.354 769.87 103.263C770.961 102.172 771.507 100.585 771.507 98.5015V70.9747C771.507 68.8915 770.961 67.354 769.87 66.362C768.779 65.2709 767.192 64.7253 765.109 64.7253H752.461C750.378 64.7253 748.791 65.2709 747.7 66.362C746.609 67.354 746.063 68.8915 746.063 70.9747V98.5015C746.063 100.585 746.609 102.172 747.7 103.263C748.791 104.354 750.378 104.9 752.461 104.9H765.109Z" fill="#00A3FF"/>
<path d="M809.382 122.755V46.8701H824.41L827.684 55.0537H828.428C829.618 52.4746 831.552 50.2427 834.231 48.358C837.008 46.3741 840.381 45.3821 844.349 45.3821H855.657C859.228 45.3821 862.452 46.2253 865.328 47.9116C868.304 49.5979 870.635 51.9291 872.322 54.9049C874.107 57.8808 875 61.1543 875 64.7253V122.755H853.425V71.2722C853.425 69.1891 852.879 67.602 851.788 66.5108C850.697 65.4197 849.11 64.8741 847.027 64.8741H840.182C838.298 64.8741 836.661 65.2709 835.272 66.0645C833.883 66.7588 832.792 67.8004 831.999 69.1891C831.304 70.5779 830.957 72.2642 830.957 74.2481V122.755H809.382Z" fill="#00A3FF"/>
<path fill-rule="evenodd" clip-rule="evenodd" d="M68.6311 0C71.7418 0 74.524 1.93525 75.6061 4.85159L121.081 127.408L140.331 75.5286C141.413 72.6123 144.195 70.677 147.306 70.677H189.712V85.5564H152.481L128.056 151.382C126.974 154.298 124.192 156.233 121.081 156.233C117.97 156.233 115.188 154.298 114.106 151.382L68.6311 28.8257L49.3812 80.7048C48.2991 83.6212 45.5169 85.5564 42.4062 85.5564H0V70.677H37.2314L61.6561 4.85159C62.7382 1.93525 65.5205 0 68.6311 0Z" fill="#00A3FF"/>
</svg>
