<svg width="788" height="115" viewBox="0 0 788 115" fill="none" xmlns="http://www.w3.org/2000/svg">
<path fill-rule="evenodd" clip-rule="evenodd" d="M762.41 28.4244H737.836V112.759H762.41V65.6881C762.41 59.9022 763.966 55.5727 766.704 52.6945C769.434 49.8241 773.482 48.2482 778.778 48.2482C781.93 48.2482 784.829 48.7034 786.475 49.3894L788 50.0246V27.8417L787.189 27.6204C785.418 27.1375 783.022 26.7389 780.463 26.7389C775.436 26.7389 771.113 28.2925 767.724 31.2207C765.515 33.1297 763.733 35.596 762.41 38.536V28.4244ZM670.396 76.9791H726.901V68.9826C726.901 56.3486 723.057 45.7728 716.046 38.3466C709.029 30.9133 698.936 26.7389 686.649 26.7389C674.354 26.7389 664.181 31.0146 657.089 38.7107C650.006 46.3972 646.091 57.3915 646.091 70.6681V70.7447C646.091 84.0941 649.966 95.0389 657.156 102.654C664.353 110.278 674.757 114.444 687.568 114.444C711.4 114.444 724.217 102.447 726.877 89.7107L727.118 88.5577L703.822 85.3106L703.385 86.6235L703.382 86.632C701.939 90.7397 696.798 95.5397 688.028 95.5397C682.579 95.5397 678.258 93.7196 675.262 90.4308C672.431 87.324 670.686 82.7994 670.396 76.9791ZM642.732 111.893L643.898 111.717L640.017 94.2515L639.035 94.3606C638.38 94.4333 637.719 94.6363 637.136 94.8155L637.135 94.8157L637.086 94.8309C636.14 95.1212 635.254 95.3865 634.244 95.3865C630.977 95.3865 628.777 94.7485 627.376 93.4267C625.989 92.1172 625.155 89.9144 625.155 86.2211V47.482H641.11V28.4244H625.155V8.35111H600.351V28.4244L575.655 28.4244V8.35112H550.852V28.4244H539.436V47.4821H550.852V88.6728C550.852 97.6452 553.037 104.179 557.788 108.436C562.511 112.668 569.546 114.444 578.768 114.444C582.091 114.444 586.127 113.417 589.065 112.67L589.138 112.651C590.559 112.289 591.681 112.005 592.419 111.893L593.533 111.725L590.478 94.2464L589.449 94.3606C588.788 94.4341 588.134 94.6403 587.563 94.8207L587.514 94.836C586.598 95.1248 585.747 95.3865 584.744 95.3865C581.478 95.3865 579.277 94.7485 577.877 93.4267C576.489 92.1172 575.655 89.9144 575.655 86.2211V47.4821L600.351 47.482V88.6728C600.351 97.6451 602.537 104.179 607.287 108.436C612.01 112.668 619.046 114.444 628.268 114.444C631.643 114.444 636.154 113.382 639.349 112.629L639.427 112.611C640.874 112.27 642.016 112.002 642.732 111.893ZM639.177 111.538C639.503 111.462 639.817 111.388 640.116 111.318C639.817 111.388 639.503 111.462 639.178 111.538L639.177 111.538ZM477.587 76.9791H534.092V68.9826C534.092 56.3486 530.248 45.7728 523.238 38.3466C516.221 30.9133 506.128 26.7389 493.841 26.7389C481.545 26.7389 471.373 31.0146 464.281 38.7107C457.198 46.3972 453.282 57.3915 453.282 70.6681V70.7447C453.282 84.0941 457.158 95.0389 464.347 102.654C471.544 110.278 481.949 114.444 494.76 114.444C518.636 114.444 531.417 101.556 534.069 88.8579L534.32 87.6581L511.002 85.345L510.576 86.6235L510.573 86.632C509.131 90.7397 503.99 95.5397 495.22 95.5397C489.77 95.5397 485.45 93.7196 482.454 90.4308C479.623 87.324 477.878 82.7994 477.587 76.9791ZM375.785 0V112.759H449.469V91.4791H401.125V0H375.785ZM244.689 28.4244V112.759H269.263V62.0872C269.263 57.6778 270.627 54.0288 272.915 51.4956C275.194 48.9719 278.454 47.482 282.412 47.482C286.313 47.482 289.313 48.7039 291.343 50.8449C293.381 52.9933 294.566 56.1993 294.566 60.4016V112.759H318.297V61.7041C318.297 57.369 319.624 53.8198 321.868 51.3667C324.103 48.9228 327.323 47.482 331.293 47.482C335.397 47.482 338.42 48.71 340.43 50.9152C342.455 53.1366 343.6 56.511 343.6 61.0912V112.759H368.174V55.4982C368.174 46.9807 365.39 39.7764 360.449 34.6956C355.507 29.6122 348.487 26.7389 340.18 26.7389C328.631 26.7389 318.966 32.6278 314.559 42.1296C312.972 37.6173 310.339 33.979 306.84 31.372C302.751 28.3257 297.55 26.7389 291.606 26.7389C281.644 26.7389 273.54 31.5624 269.263 39.2492V28.4244H244.689ZM0 0V112.759H73.6846V91.4791H25.3401V0H0ZM697.884 49.7017C700.445 52.1724 702.287 55.817 703.079 60.6796H670.769C671.602 55.932 673.505 52.2906 676.119 49.7913C678.95 47.0846 682.691 45.6433 687.032 45.6433C691.424 45.6433 695.12 47.0346 697.884 49.7017ZM505.076 49.7017C507.637 52.1724 509.478 55.817 510.271 60.6796H477.961C478.793 55.932 480.696 52.2906 483.31 49.7913C486.141 47.0846 489.883 45.6433 494.224 45.6433C498.615 45.6433 502.312 47.0346 505.076 49.7017ZM78.2325 70.5915C78.2325 84.175 82.2252 95.1606 89.5143 102.757C96.8082 110.358 107.287 114.444 120.016 114.444C138.354 114.444 152.049 105.892 158.208 90.6976C161.072 97.7845 165.59 103.464 171.515 107.491C178.216 112.045 186.654 114.444 196.411 114.444C209.063 114.444 219.541 110.377 226.854 102.787C234.162 95.2012 238.195 84.2154 238.195 70.5915V70.4383C238.195 56.9213 234.081 45.9749 226.726 38.4024C219.369 30.8271 208.875 26.7389 196.334 26.7389C178.173 26.7389 164.407 35.4523 158.219 50.6179C152.016 35.3926 138.178 26.7389 119.94 26.7389C107.433 26.7389 96.9775 30.868 89.6504 38.4625C82.3268 46.0533 78.2325 56.9979 78.2325 70.4383V70.5915ZM136.843 70.5915C136.843 78.4567 135.129 84.5046 132.206 88.5552C129.311 92.5661 125.182 94.697 120.093 94.697C114.919 94.697 110.753 92.5783 107.844 88.5804C104.905 84.5415 103.19 78.4963 103.19 70.5915V70.4383C103.19 62.6542 104.922 56.6446 107.854 52.6118C110.759 48.6162 114.89 46.486 119.94 46.486C125.031 46.486 129.202 48.6193 132.134 52.6157C135.093 56.6483 136.843 62.6564 136.843 70.4383V70.5915ZM213.238 70.5915C213.238 78.4567 211.523 84.5046 208.6 88.5552C205.706 92.5661 201.576 94.697 196.487 94.697C191.313 94.697 187.147 92.5783 184.238 88.5804C181.299 84.5415 179.584 78.4963 179.584 70.5915V70.4383C179.584 62.6542 181.316 56.6446 184.248 52.6118C187.153 48.6162 191.285 46.486 196.334 46.486C201.425 46.486 205.596 48.6193 208.528 52.6157C211.487 56.6483 213.238 62.6564 213.238 70.4383V70.5915Z" fill="white"/>
</svg>
